<?xml version="1.0" encoding="utf-8"?>
<!-- Generator: Adobe Illustrator 16.0.0, SVG Export Plug-In . SVG Version: 6.00 Build 0)  -->
<!DOCTYPE svg PUBLIC "-//W3C//DTD SVG 1.1//EN" "http://www.w3.org/Graphics/SVG/1.1/DTD/svg11.dtd">
<svg version="1.1" xmlns="http://www.w3.org/2000/svg" xmlns:xlink="http://www.w3.org/1999/xlink" x="0px" y="0px"
	 width="9.334px" height="12px" viewBox="0 0 10.869 13.973" enable-background="new 0 0 10.869 13.973">
<g>
	<path fill="#0099e5" d="M10.771,12.109c-0.586,0.585-1.264,1.045-2.02,1.364c-0.788,0.328-1.615,0.5-2.473,0.5 s-1.691-0.172-2.471-0.5c-0.757-0.319-1.443-0.779-2.02-1.364c-0.585-0.576-1.045-1.255-1.365-2.011 C0.228,9.621,0.071,9.13,0.002,8.623c-0.031-0.22,0.271-0.266,0.373-0.28C0.617,8.304,0.781,8.32,0.813,8.498 c0.008,0.008,0.008,0.016,0.008,0.03c0.031,0.156,0.109,0.624,0.358,1.24c0.257,0.64,0.655,1.232,1.185,1.763 c0.508,0.508,1.1,0.903,1.763,1.186c0.679,0.289,1.403,0.437,2.151,0.437c0.74,0,1.467-0.146,2.152-0.437 c0.654-0.281,1.248-0.678,1.754-1.186l0.047-0.048c0.056-0.055,0.117-0.069,0.195-0.047c0.07,0.017,0.156,0.078,0.258,0.172 c0.25,0.259,0.195,0.384,0.134,0.453C10.802,12.079,10.771,12.109,10.771,12.109z M10.451,9.489 c-0.233,0.548-0.562,1.029-0.981,1.451c-0.422,0.42-0.912,0.748-1.459,0.982c-0.563,0.242-1.162,0.359-1.777,0.359 c-0.616,0-1.217-0.117-1.778-0.358c-0.545-0.234-1.037-0.563-1.457-0.982c-0.422-0.422-0.749-0.903-0.976-1.45 C1.976,9.388,1.906,9.194,1.906,9.178H1.898C1.828,8.96,2.139,8.866,2.233,8.835c0.226-0.07,0.396-0.103,0.468,0.094 c0.188,0.498,0.476,0.982,0.756,1.302h0.008c0-0.632,0-2.564,0-2.644V7.571c0.016-0.653,0.289-1.316,0.796-1.809 c0.522-0.515,1.224-0.803,1.973-0.803c1.528,0,2.767,1.23,2.767,2.744c0,1.527-1.247,2.768-2.767,2.768 c-0.304,0-0.53-0.022-0.874-0.124c-0.039-0.016-0.218-0.094-0.101-0.476c0.03-0.103,0.124-0.398,0.343-0.336 c0.016,0,0.398,0.094,0.601,0.094c1.083,0,1.935-0.842,1.935-1.918c0-0.507-0.203-0.982-0.563-1.334 C7.218,6.02,6.733,5.824,6.211,5.824c-0.538,0-1.029,0.219-1.388,0.622c-0.313,0.353-0.5,0.819-0.5,1.248v3.222 c0.563,0.343,1.209,0.521,1.888,0.521c0.998,0,1.966-0.396,2.66-1.091C9.572,9.644,9.963,8.7,9.963,7.71 c0-0.998-0.391-1.935-1.1-2.644C8.16,4.365,7.226,3.975,6.22,3.975c-1.007,0-1.951,0.391-2.651,1.092 c-0.008,0.009-0.452,0.468-0.6,0.679L2.952,5.761c-0.094,0.133-0.18,0.258-0.57,0.172C2.188,5.886,1.978,5.769,1.978,5.597V0.295 c0-0.142,0.108-0.296,0.295-0.296h6.836c0.233,0,0.233,0.327,0.233,0.428c0,0.109,0,0.43-0.233,0.43H2.786v3.767h0.008 c0.437-0.46,1.193-0.943,1.637-1.131c0.555-0.233,1.178-0.358,1.802-0.358c0.615,0,1.216,0.117,1.777,0.358 c0.545,0.233,1.037,0.563,1.457,0.981c0.422,0.422,0.748,0.904,0.982,1.451c0.234,0.568,0.359,1.162,0.359,1.785 C10.81,8.328,10.685,8.929,10.451,9.489z M10.466,3.626c-0.094,0.094-0.195,0.203-0.305,0.203c-0.047,0-0.086-0.017-0.125-0.056 C9.476,3.291,8.97,2.963,8.423,2.737C7.745,2.44,7.021,2.301,6.271,2.301c-0.661,0-1.386,0.132-2.042,0.382 C4.026,2.761,3.917,2.495,3.878,2.394C3.831,2.27,3.808,2.168,3.815,2.099C3.831,2.021,3.87,1.966,3.94,1.943 c0.639-0.28,1.512-0.444,2.331-0.444c0.851,0,1.686,0.172,2.465,0.5c0.717,0.304,1.301,0.678,1.832,1.185 C10.716,3.314,10.615,3.454,10.466,3.626z M6.622,7.782l0.491,0.49c0.055,0.056,0.155,0.171-0.056,0.382 C6.974,8.741,6.888,8.788,6.81,8.788c-0.056,0-0.103-0.023-0.148-0.078L6.179,8.234C6.14,8.273,5.702,8.71,5.663,8.749 C5.647,8.765,5.608,8.788,5.546,8.788c-0.07,0-0.156-0.039-0.242-0.125L5.288,8.647C5.234,8.601,5.149,8.515,5.149,8.421 c0-0.047,0.023-0.085,0.063-0.132l0.515-0.507L5.212,7.267C5.126,7.181,5.165,7.073,5.32,6.916 c0.094-0.095,0.172-0.142,0.242-0.142c0.039,0,0.07,0.017,0.102,0.039l0.507,0.516l0.508-0.508 c0.086-0.086,0.227-0.047,0.373,0.103C7.146,7.018,7.247,7.15,7.138,7.267L6.622,7.782z"/>
</g>
</svg>