<?xml version="1.0" encoding="utf-8"?>
<!-- Generator: Adobe Illustrator 16.0.0, SVG Export Plug-In . SVG Version: 6.00 Build 0)  -->
<!DOCTYPE svg PUBLIC "-//W3C//DTD SVG 1.1//EN" "http://www.w3.org/Graphics/SVG/1.1/DTD/svg11.dtd">
<svg version="1.1" xmlns="http://www.w3.org/2000/svg" xmlns:xlink="http://www.w3.org/1999/xlink" x="0px" y="0px"
	 width="19.14px" height="12px" viewBox="0 0 15.969 10.012" enable-background="new 0 0 15.969 10.012">
<g>
	<path fill="#1769ff" d="M4.63,0c1.685,0,3.142,0.475,3.142,2.432c0,0.99-0.459,1.631-1.341,2.051 C7.639,4.827,8.225,5.74,8.225,6.971c0,1.996-1.677,2.854-3.462,2.854h-4.764V0H4.63z M4.35,3.969c0.772,0,1.317-0.336,1.317-1.17 c0-0.904-0.701-1.123-1.481-1.123H2.158v2.293H4.35z M4.466,8.156c0.882,0,1.599-0.313,1.599-1.303 c0-1.006-0.601-1.403-1.552-1.403H2.158v2.706H4.466z M14.112,7.617h1.723c-0.528,1.63-1.629,2.395-3.329,2.395 c-2.244,0-3.642-1.521-3.642-3.735c0-2.137,1.476-3.767,3.642-3.767c2.229,0,3.463,1.755,3.463,3.86 c0,0.124-0.009,0.249-0.017,0.365h-5.131c0,1.14,0.601,1.81,1.747,1.81C13.161,8.545,13.924,8.226,14.112,7.617z M10.424,0.662 v0.967h3.983V0.662H10.424z M10.821,5.504h3.182c-0.086-0.943-0.577-1.521-1.56-1.521C11.508,3.984,10.883,4.568,10.821,5.504z"/>
</g>
</svg>