<?xml version="1.0" encoding="utf-8"?>
<!-- Generator: Adobe Illustrator 16.0.0, SVG Export Plug-In . SVG Version: 6.00 Build 0)  -->
<!DOCTYPE svg PUBLIC "-//W3C//DTD SVG 1.1//EN" "http://www.w3.org/Graphics/SVG/1.1/DTD/svg11.dtd">
<svg version="1.1" id="Layer_1" xmlns="http://www.w3.org/2000/svg" xmlns:xlink="http://www.w3.org/1999/xlink" x="0px" y="0px"
	 width="11.82px" height="12px" viewBox="0 0 11.261 11.432" enable-background="new 0 0 11.261 11.432">
<path fill-rule="evenodd" clip-rule="evenodd" fill="#f57d00" d="M11.233,4.747l-0.094-0.199l-0.16-0.126
	c-0.208-0.164-1.258,0.012-1.541-0.248c-0.2-0.187-0.23-0.522-0.291-0.977C9.034,2.314,8.962,2.269,8.826,1.971
	C8.331,0.909,6.99,0.111,6.069,0H3.571C1.606,0,0,1.627,0,3.613v4.21c0,1.984,1.606,3.606,3.571,3.606h4.104
	c1.963,0,3.559-1.622,3.57-3.606l0.023-2.915L11.233,4.747z M3.616,2.951h1.979c0.378,0,0.684,0.311,0.684,0.688
	c0,0.378-0.306,0.691-0.684,0.691H3.616c-0.377,0-0.684-0.313-0.684-0.691C2.932,3.262,3.239,2.951,3.616,2.951z M7.639,8.459H3.616
	c-0.377,0-0.684-0.313-0.684-0.688c0-0.379,0.307-0.687,0.684-0.687h4.023c0.375,0,0.681,0.308,0.681,0.687
	C8.32,8.146,8.014,8.459,7.639,8.459z"/>
</svg>