<?xml version="1.0" encoding="utf-8"?>
<!-- Generator: Adobe Illustrator 16.0.0, SVG Export Plug-In . SVG Version: 6.00 Build 0)  -->
<!DOCTYPE svg PUBLIC "-//W3C//DTD SVG 1.1//EN" "http://www.w3.org/Graphics/SVG/1.1/DTD/svg11.dtd">
<svg version="1.1" xmlns="http://www.w3.org/2000/svg" xmlns:xlink="http://www.w3.org/1999/xlink" x="0px" y="0px"
	 width="12.953px" height="12px" viewBox="0 0 13.389 10.551" enable-background="new 0 0 13.389 10.551">
<g>
	<g>
		<path fill="#4dbd33" d="M6.988,5.109c1.027-0.206,1.878-1.105,1.878-2.425c0-1.408-1.061-2.689-3.131-2.689H0.001v10.561h5.914 c2.092,0,3.168-1.268,3.168-2.865C9.079,6.378,8.165,5.285,6.988,5.109z M2.318,1.974h2.904c0.785,0,1.272,0.461,1.272,1.107 c0,0.68-0.492,1.105-1.272,1.105H2.318V1.974z M5.323,8.577H2.318V6.171h3.004c0.898,0,1.386,0.537,1.386,1.203 C6.713,8.132,6.188,8.577,5.323,8.577z M11.937,0.013c-0.699,0-1.293,0.57-1.293,1.25c0,0.681,0.492,1.14,1.113,1.14 c0.131,0,0.26-0.015,0.313-0.048c-0.133,0.57-0.734,1.236-1.26,1.508l0.898,0.711c1.008-0.693,1.68-1.753,1.68-2.942 C13.388,0.601,12.704,0.013,11.937,0.013z"/>
	</g>
</g>
</svg>