<?xml version="1.0" encoding="utf-8"?>
<!-- Generator: Adobe Illustrator 16.0.0, SVG Export Plug-In . SVG Version: 6.00 Build 0)  -->
<!DOCTYPE svg PUBLIC "-//W3C//DTD SVG 1.1//EN" "http://www.w3.org/Graphics/SVG/1.1/DTD/svg11.dtd">
<svg version="1.1" id="Layer_1" xmlns="http://www.w3.org/2000/svg" xmlns:xlink="http://www.w3.org/1999/xlink" x="0px" y="0px"
	 width="9.195px" height="12px" viewBox="0 0 9.298 12.135" enable-background="new 0 0 9.298 12.135">
<path fill="#004e72" d="M9.298,0l-2.56,0.53v3.791C6.155,3.575,5.345,3.22,4.292,3.22c-1.101,0-2.09,0.405-2.9,1.198
	C0.486,5.293,0,6.412,0,7.659c0,1.358,0.519,2.525,1.522,3.416c0.761,0.681,1.669,1.021,2.722,1.021
	c1.037,0,1.814-0.276,2.576-1.021v0.971h2.478V0z M4.81,9.78c-1.311,0-2.25-0.923-2.25-2.138c0-1.167,0.939-2.155,2.154-2.155
	c1.199,0,2.123,0.94,2.123,2.188C6.836,8.872,5.912,9.78,4.81,9.78"/>
</svg>