<?xml version="1.0" encoding="utf-8"?>
<!-- Generator: Adobe Illustrator 16.0.0, SVG Export Plug-In . SVG Version: 6.00 Build 0)  -->
<!DOCTYPE svg PUBLIC "-//W3C//DTD SVG 1.1//EN" "http://www.w3.org/Graphics/SVG/1.1/DTD/svg11.dtd">
<svg version="1.1" xmlns="http://www.w3.org/2000/svg" xmlns:xlink="http://www.w3.org/1999/xlink" x="0px" y="0px"
	 width="20.016px" height="12px" viewBox="0 0 15.971 9.575" enable-background="new 0 0 15.971 9.575">
<g>
	<path fill="#005be2" d="M4.148,0v7.664H0V2.229h2.559V0H4.148z M2.558,3.508H1.599v2.877h0.959V3.508z M4.788,1.59h1.598V0H4.788 V1.59z M4.788,7.665h1.598V2.229H4.788V7.665z M11.18,2.229v7.346H7.026V8.304h2.557v-0.64H7.026V2.229H11.18z M9.583,3.508H8.624 v2.877h0.959V3.508z M15.969,2.229v7.346h-4.148V8.304h2.549v-0.64h-2.549V2.229H15.969z M14.37,3.508h-0.959v2.877h0.959V3.508z" />
</g>
</svg>