<?xml version="1.0" encoding="utf-8"?>
<!-- Generator: Adobe Illustrator 16.0.0, SVG Export Plug-In . SVG Version: 6.00 Build 0)  -->
<!DOCTYPE svg PUBLIC "-//W3C//DTD SVG 1.1//EN" "http://www.w3.org/Graphics/SVG/1.1/DTD/svg11.dtd">
<svg version="1.1" xmlns="http://www.w3.org/2000/svg" xmlns:xlink="http://www.w3.org/1999/xlink" x="0px" y="0px"
	 width="12px" height="12px" viewBox="0 0 11.977 11.977" enable-background="new 0 0 11.977 11.977">
<g>
	<path fill="#ea4c89" d="M5.989,11.977C2.681,11.977,0,9.293,0,5.989c0-3.308,2.682-5.988,5.988-5.988 c3.306,0,5.987,2.682,5.987,5.988C11.976,9.293,9.295,11.977,5.989,11.977z M6.128,5.099C3.492,5.886,0.966,5.825,0.88,5.825 C0.872,5.88,0.872,5.933,0.872,5.989c0,1.31,0.5,2.509,1.311,3.414c1.396-2.486,4.156-3.375,4.156-3.375 c0.069-0.022,0.14-0.038,0.202-0.063C6.417,5.676,6.278,5.386,6.128,5.099z M3.804,1.364C2.378,2.035,1.319,3.352,0.983,4.935 c0.133,0,2.27,0.023,4.725-0.624C4.819,2.735,3.875,1.457,3.804,1.364z M6.892,6.813c-0.008,0-0.022,0.01-0.03,0.01 c0,0-3.033,1.061-4.017,3.195C2.798,9.979,2.728,9.934,2.728,9.934c0.89,0.725,2.021,1.168,3.261,1.168 c0.709,0,1.38-0.146,1.996-0.404C7.906,10.244,7.61,8.686,6.892,6.813z M4.748,1.028c0,0,0.008-0.008,0.016-0.008 C4.755,1.02,4.755,1.02,4.748,1.028z M5.989,0.873c-0.413,0-0.818,0.055-1.209,0.147C4.858,1.122,5.824,2.391,6.698,4 c1.926-0.718,2.651-1.825,2.667-1.85C8.467,1.355,7.283,0.873,5.989,0.873z M9.942,2.735C9.925,2.752,9.108,3.936,7.087,4.762 c0.117,0.242,0.234,0.491,0.343,0.74c0.039,0.086,0.07,0.18,0.109,0.266c1.763-0.227,3.501,0.156,3.563,0.164 C11.087,4.724,10.658,3.608,9.942,2.735z M7.851,6.573c0.671,1.848,0.943,3.354,0.998,3.656c1.146-0.771,1.957-2.004,2.191-3.432 C10.931,6.768,9.504,6.314,7.851,6.573z"/>
</g>
</svg>