<?xml version="1.0" encoding="utf-8"?>
<!-- Generator: Adobe Illustrator 16.0.0, SVG Export Plug-In . SVG Version: 6.00 Build 0)  -->
<!DOCTYPE svg PUBLIC "-//W3C//DTD SVG 1.1//EN" "http://www.w3.org/Graphics/SVG/1.1/DTD/svg11.dtd">
<svg version="1.1" xmlns="http://www.w3.org/2000/svg" xmlns:xlink="http://www.w3.org/1999/xlink" x="0px" y="0px"
	 width="10.496px" height="12px" viewBox="0 0 11.956 13.669" enable-background="new 0 0 11.956 13.669">
	<path fill-rule="evenodd" clip-rule="evenodd" fill="#82b541" d="M11.953,6.604c0.019,1.101-0.065,2.141-0.416,3.151 c-0.442,1.273-1.251,2.251-2.371,2.975c-1.305,0.845-2.756,1.114-4.261,0.833c-1.893-0.354-3.344-1.402-4.217-3.141 c-0.983-1.956-0.913-3.903,0.225-5.786c0.19-0.314,0.444-0.592,0.682-0.876C1.642,3.702,1.75,3.694,1.829,3.663 C1.866,3.758,1.945,3.86,1.932,3.948C1.86,4.414,1.75,4.875,1.684,5.342C1.556,6.236,1.75,7.087,2.085,7.913 c0.058,0.144,0.106,0.301,0.202,0.415c0.072,0.087,0.213,0.114,0.323,0.168C2.647,8.41,2.71,8.327,2.718,8.238 c0.075-0.833,0.187-1.657,0.436-2.46c0.545-1.766,1.568-3.206,2.95-4.409c0.163-0.141,0.342-0.264,0.497-0.413 C7.242,0.335,8.07,0.2,8.896,0.067C9.19,0.02,9.491,0.014,9.79,0.001c0.445-0.019,0.685,0.267,0.876,0.615 c0.393,0.715,0.636,1.487,0.829,2.274C11.797,4.124,11.982,5.374,11.953,6.604z"/>
</svg>