<?xml version="1.0" encoding="utf-8"?>
<!-- Generator: Adobe Illustrator 16.0.0, SVG Export Plug-In . SVG Version: 6.00 Build 0)  -->
<!DOCTYPE svg PUBLIC "-//W3C//DTD SVG 1.1//EN" "http://www.w3.org/Graphics/SVG/1.1/DTD/svg11.dtd">
<svg version="1.1" id="Layer_1" xmlns="http://www.w3.org/2000/svg" xmlns:xlink="http://www.w3.org/1999/xlink" x="0px" y="0px"
	 width="8.569px" height="12px" viewBox="0 0 9.283 13" enable-background="new 0 0 9.283 13">
<g>
	<g>
		<path fill="#f94877" d="M8.145,0.022c0,0-5.958,0-6.912,0S0,0.74,0,1.191c0,0.452,0,10.98,0,10.98c0,0.509,0.273,0.697,0.427,0.76
			c0.154,0.063,0.578,0.114,0.832-0.178c0,0,3.263-3.786,3.319-3.843c0.085-0.085,0.085-0.085,0.169-0.085c0.169,0,1.428,0,2.11,0
			c0.889,0,1.031-0.633,1.123-1.005C8.058,7.51,8.924,3.08,9.212,1.673C9.432,0.601,9.159,0.022,8.145,0.022z M7.98,7.821
			C8.058,7.51,8.924,3.08,9.212,1.673 M7.738,1.893L7.447,3.404C7.412,3.568,7.206,3.74,7.015,3.74c-0.191,0-2.692,0-2.692,0
			c-0.303,0-0.52,0.208-0.52,0.51v0.33c0,0.303,0.219,0.518,0.521,0.518c0,0,2.07,0,2.284,0c0.213,0,0.424,0.234,0.378,0.462
			C6.94,5.788,6.721,6.921,6.696,7.046C6.67,7.171,6.526,7.385,6.274,7.385c-0.217,0-1.866,0-1.866,0
			c-0.339,0-0.442,0.045-0.669,0.328c-0.228,0.282-2.27,2.735-2.27,2.735c-0.021,0.024-0.042,0.017-0.042-0.01V1.871
			c0-0.194,0.168-0.42,0.421-0.42c0,0,5.329,0,5.547,0C7.597,1.45,7.789,1.643,7.738,1.893z"/>
	</g>
</g>
</svg>