<?xml version="1.0" encoding="utf-8"?>
<!-- Generator: Adobe Illustrator 16.0.0, SVG Export Plug-In . SVG Version: 6.00 Build 0)  -->
<!DOCTYPE svg PUBLIC "-//W3C//DTD SVG 1.1//EN" "http://www.w3.org/Graphics/SVG/1.1/DTD/svg11.dtd">
<svg version="1.1" xmlns="http://www.w3.org/2000/svg" xmlns:xlink="http://www.w3.org/1999/xlink" x="0px" y="0px"
	 width="14.182px" height="12px" viewBox="0 0 12.975 10.979" enable-background="new 0 0 12.975 10.979">
<g>
	<path fill="#6cc644" d="M12.499,8.693c-1.029,2.082-3.859,2.285-5.886,2.285c-2.06,0-5.062-0.18-6.129-2.285 c-0.397-0.785-0.483-1.715-0.483-2.58c0-1.138,0.312-2.214,1.061-3.087c-0.141-0.43-0.21-0.882-0.21-1.325 c0-0.584,0.133-1.171,0.397-1.699c1.231,0,2.02,0.537,2.955,1.271C4.992,1.085,5.802,1,6.614,1c0.731,0,1.473,0.078,2.184,0.249 c0.926-0.728,1.713-1.248,2.93-1.248c0.266,0.528,0.396,1.115,0.396,1.699c0,0.443-0.07,0.889-0.211,1.311 c0.75,0.881,1.061,1.965,1.061,3.102C12.974,6.98,12.888,7.898,12.499,8.693z M9.232,5.24c-0.514,0-1.006,0.094-1.52,0.162 C7.306,5.466,6.9,5.488,6.487,5.488S5.668,5.466,5.262,5.402C4.756,5.334,4.257,5.24,3.742,5.24c-1.271,0-1.996,1.052-1.996,2.244 c0,2.389,2.183,2.754,4.085,2.754H7.14c1.904,0,4.086-0.365,4.086-2.754C11.228,6.292,10.503,5.24,9.232,5.24z M3.993,8.982 c-0.702,0-0.998-0.928-0.998-1.498c0-0.566,0.296-1.496,0.998-1.496s0.998,0.929,0.998,1.496C4.991,8.056,4.694,8.982,3.993,8.982z M8.984,8.982c-0.703,0-0.998-0.928-0.998-1.498c0-0.566,0.295-1.496,0.998-1.496c0.701,0,0.996,0.929,0.996,1.496 C9.98,8.056,9.685,8.982,8.984,8.982z"/>
</g>
</svg>