<?xml version="1.0" encoding="utf-8"?>
<!-- Generator: Adobe Illustrator 16.0.0, SVG Export Plug-In . SVG Version: 6.00 Build 0)  -->
<!DOCTYPE svg PUBLIC "-//W3C//DTD SVG 1.1//EN" "http://www.w3.org/Graphics/SVG/1.1/DTD/svg11.dtd">
<svg xmlns="http://www.w3.org/2000/svg" xmlns:xlink="http://www.w3.org/1999/xlink" x="0px" y="0px"
	 width="17.668px" height="12px" viewBox="0 0 18.019 11.432" enable-background="new 0 0 18.019 11.432">
<g>
	<path fill="#d93e2d" d="M5.771,11.431c-3.158,0-5.715-2.559-5.715-5.715C0.056,2.558,2.613,0,5.771,0 C7.314,0,8.602,0.562,9.6,1.498L8.048,2.985C7.626,2.582,6.886,2.104,5.771,2.104c-1.949,0-3.54,1.614-3.54,3.61 c0,1.996,1.591,3.611,3.54,3.611c2.261,0,3.112-1.631,3.244-2.467H5.771V4.894h5.396c0.055,0.289,0.094,0.578,0.094,0.951 C11.259,9.115,9.069,11.431,5.771,11.431z M18.019,6.534H16.39v1.629h-1.637V6.534h-1.631V4.895h1.631V3.266h1.637v1.629h1.629 V6.534z"/>
</g>
</svg>