<?xml version="1.0" encoding="utf-8"?>
<!-- Generator: Adobe Illustrator 16.0.0, SVG Export Plug-In . SVG Version: 6.00 Build 0)  -->
<!DOCTYPE svg PUBLIC "-//W3C//DTD SVG 1.1//EN" "http://www.w3.org/Graphics/SVG/1.1/DTD/svg11.dtd">
<svg version="1.1" id="Layer_1" xmlns="http://www.w3.org/2000/svg" xmlns:xlink="http://www.w3.org/1999/xlink" x="0px" y="0px"
	 width="12.047px" height="12px" viewBox="0 0 12.183 12.135" enable-background="new 0 0 12.183 12.135">
<path fill-rule="evenodd" clip-rule="evenodd" fill="#F8591A" d="M6.091,12.183C2.727,12.183,0,9.455,0,6.092
	C0,2.727,2.727,0,6.091,0s6.091,2.727,6.091,6.091C12.182,9.455,9.455,12.183,6.091,12.183z M10.437,4.581
	c-0.124-0.36-0.291-0.705-0.502-1.024c-0.836-1.273-2.287-2.056-3.81-2.056c-0.518,0-1.035,0.087-1.522,0.26
	c-1.303,0.462-2.341,1.521-2.789,2.82C1.776,4.696,1.739,4.81,1.709,4.927C1.613,5.306,1.565,5.698,1.568,6.09
	c0.002,0.365,0.026,0.807,0.436,0.946c0.071,0.023,0.142,0.035,0.212,0.038c0.383,0.018,0.769-0.232,1.039-0.479
	c0.326-0.298,0.57-0.683,0.705-1.104c0.25-0.781,0.213-1.63,0.116-2.436C4.069,2.987,4.06,2.92,4.052,2.853
	C4.049,2.822,4.035,2.77,4.053,2.741c0.029-0.045,0.128,0,0.165,0.01c0.325,0.094,0.638,0.204,0.942,0.35
	C5.614,3.32,6.026,3.633,6.405,3.963C6.784,4.294,7.133,4.659,7.462,5.04c0.35,0.406,0.669,0.835,0.98,1.271
	c0.272,0.38,0.637,0.754,1.073,0.938c0.926,0.391,1.162-0.423,1.168-1.16c0.002-0.392-0.045-0.783-0.142-1.162
	C10.512,4.81,10.475,4.696,10.437,4.581L10.437,4.581z"/>
</svg>