<?xml version="1.0" encoding="utf-8"?>
<!-- Generator: Adobe Illustrator 16.0.0, SVG Export Plug-In . SVG Version: 6.00 Build 0)  -->
<!DOCTYPE svg PUBLIC "-//W3C//DTD SVG 1.1//EN" "http://www.w3.org/Graphics/SVG/1.1/DTD/svg11.dtd">
<svg version="1.1" xmlns="http://www.w3.org/2000/svg" xmlns:xlink="http://www.w3.org/1999/xlink" x="0px" y="0px"
	 width="14.636px" height="12px" viewBox="0 0 17.838 14.625" enable-background="new 0 0 17.838 14.625">
<g>
	<path fill-rule="evenodd" clip-rule="evenodd" fill="#83C441" d="M8.92,0C3.993,0,0,2.998,0,6.696c0,1.99,1.157,3.775,2.991,5.001 c-0.166,0.935-0.485,2.062-1.091,2.97c0.788,0,2.771-0.92,4.177-1.625c0.894,0.226,1.849,0.35,2.843,0.35 c4.925,0,8.918-2.998,8.918-6.696S13.844,0,8.92,0L8.92,0z M13.188,6.791c-0.031,0.128-0.087,0.263-0.174,0.409 c-0.161,0.305-0.377,0.574-0.638,0.796c-1.252,1.312-3.462,2.782-3.462,2.782s-2.21-1.472-3.463-2.782 C5.193,7.773,4.975,7.504,4.815,7.199C4.727,7.054,4.672,6.918,4.642,6.791C4.553,6.526,4.505,6.24,4.505,5.944 c0-1.483,1.198-2.687,2.679-2.687c0.994,0,1.729,1.075,1.729,1.791c0-0.716,0.372-1.791,1.735-1.791 c1.479,0,2.678,1.204,2.678,2.687C13.325,6.24,13.276,6.526,13.188,6.791L13.188,6.791z M13.188,6.791"/>
</g>
</svg>