<?xml version="1.0" encoding="utf-8"?>
<!-- Generator: Adobe Illustrator 16.0.0, SVG Export Plug-In . SVG Version: 6.00 Build 0)  -->
<!DOCTYPE svg PUBLIC "-//W3C//DTD SVG 1.1//EN" "http://www.w3.org/Graphics/SVG/1.1/DTD/svg11.dtd">
<svg version="1.1" xmlns="http://www.w3.org/2000/svg" xmlns:xlink="http://www.w3.org/1999/xlink" x="0px" y="0px"
	 width="11.896px" height="12px" viewBox="0 0 14.359 14.484" enable-background="new 0 0 14.359 14.484">
<g enable-background="new">
	<path fill="#c32aa3" d="M14.315,10.221c-0.057,1.149-0.317,2.17-1.159,3.012s-1.861,1.104-3.012,1.16 C9.152,14.45,8.17,14.44,7.178,14.44c-0.992,0-1.975,0.01-2.966-0.047c-1.149-0.057-2.17-0.318-3.012-1.16s-1.104-1.861-1.16-3.012 C-0.014,9.23-0.005,8.248-0.005,7.257c0-0.99-0.009-1.974,0.047-2.965c0.057-1.149,0.318-2.17,1.16-3.012s1.861-1.104,3.012-1.16 c0.992-0.057,1.975-0.047,2.966-0.047c0.99,0,1.974-0.01,2.966,0.047c1.149,0.056,2.17,0.318,3.012,1.16s1.104,1.861,1.159,3.012 c0.056,0.991,0.047,1.975,0.047,2.965C14.363,8.248,14.371,9.23,14.315,10.221z M2.941,1.654c-0.327,0.131-0.57,0.29-0.823,0.542 C1.865,2.449,1.707,2.692,1.575,3.019c-0.374,0.943-0.29,3.188-0.29,4.236c0,1.049-0.084,3.293,0.29,4.237 c0.131,0.327,0.29,0.57,0.542,0.823c0.253,0.252,0.496,0.411,0.823,0.542c0.944,0.374,3.188,0.29,4.236,0.29 c1.049,0,3.292,0.084,4.237-0.29c0.327-0.131,0.57-0.29,0.823-0.542c0.253-0.253,0.411-0.496,0.542-0.823 c0.375-0.944,0.29-3.188,0.29-4.237c0-1.048,0.085-3.293-0.29-4.236c-0.131-0.327-0.289-0.57-0.542-0.823 c-0.253-0.252-0.496-0.411-0.823-0.542c-0.945-0.374-3.188-0.29-4.237-0.29C6.129,1.364,3.885,1.28,2.941,1.654z M7.178,10.942 c-2.039,0-3.687-1.646-3.687-3.687S5.138,3.57,7.178,3.57c2.039,0,3.686,1.646,3.686,3.686S9.218,10.942,7.178,10.942z M7.178,4.862c-1.319,0-2.396,1.075-2.396,2.395c0,1.32,1.077,2.395,2.396,2.395s2.395-1.075,2.395-2.396 C9.573,5.936,8.498,4.862,7.178,4.862z M11.013,4.282c-0.478,0-0.86-0.384-0.86-0.86c0-0.478,0.384-0.859,0.86-0.859 c0.476,0,0.859,0.383,0.859,0.859C11.874,3.898,11.49,4.282,11.013,4.282z"/>
</g>
</svg>