<?xml version="1.0" encoding="utf-8"?>
<!-- Generator: Adobe Illustrator 16.0.0, SVG Export Plug-In . SVG Version: 6.00 Build 0)  -->
<!DOCTYPE svg PUBLIC "-//W3C//DTD SVG 1.1//EN" "http://www.w3.org/Graphics/SVG/1.1/DTD/svg11.dtd">
<svg version="1.1" id="Layer_1" xmlns="http://www.w3.org/2000/svg" xmlns:xlink="http://www.w3.org/1999/xlink" x="0px" y="0px"
	 width="10.225px" height="12px" viewBox="0 0 10.34 12.135" enable-background="new 0 0 10.34 12.135">
<path id="K_1_" fill="#2bde73" d="M3.956,4.151L6.19,0.915C6.612,0.305,7.156,0,7.825,0C8.37,0,8.843,0.195,9.24,0.581
	c0.399,0.387,0.598,0.85,0.598,1.389c0,0.399-0.104,0.751-0.316,1.055L7.509,5.953L9.97,9.074c0.246,0.311,0.369,0.675,0.369,1.09
	c0,0.551-0.193,1.024-0.58,1.42c-0.387,0.396-0.856,0.594-1.407,0.594c-0.604,0-1.064-0.196-1.381-0.589L3.956,7.825v2.075
	c0,0.593-0.103,1.053-0.308,1.381c-0.375,0.597-0.92,0.896-1.635,0.896c-0.65,0-1.155-0.22-1.513-0.659
	C0.166,11.115,0,10.578,0,9.909V2.216c0-0.633,0.17-1.154,0.51-1.564C0.867,0.218,1.36,0,1.987,0c0.598,0,1.096,0.218,1.495,0.651
	c0.223,0.24,0.363,0.483,0.422,0.729c0.035,0.152,0.053,0.437,0.053,0.853V4.151z"/>
</svg>