<?xml version="1.0" encoding="utf-8"?>
<!-- Generator: Adobe Illustrator 16.0.0, SVG Export Plug-In . SVG Version: 6.00 Build 0)  -->
<!DOCTYPE svg PUBLIC "-//W3C//DTD SVG 1.1//EN" "http://www.w3.org/Graphics/SVG/1.1/DTD/svg11.dtd">
<svg version="1.1" xmlns="http://www.w3.org/2000/svg" xmlns:xlink="http://www.w3.org/1999/xlink" x="0px" y="0px"
	 width="19.353px" height="12px" viewBox="0 0 13.973 8.664" enable-background="new 0 0 13.973 8.664">
<g>
	<path fill="#d51007" d="M10.154,2.494c0.211,0.639,0.701,0.771,1.286,0.937c1.303,0.364,2.533,1.061,2.533,2.588 c0,1.552-1.294,2.644-2.807,2.644c-2.511,0-3.291-3.072-4.016-4.942C6.55,2.175,5.918,1.271,4.179,1.271 c-1.544,0-2.899,1.481-2.899,3.002c0,1.613,1.209,3.111,2.885,3.111c0.74,0,1.513-0.156,2.012-0.74 c0.242-0.272,0.477-0.569,0.647-0.904l0.654,1.185C7.392,7.119,7.267,7.308,7.134,7.472l0.008,0.008 C6.355,8.392,5.28,8.664,4.117,8.664C1.763,8.664,0,6.582,0,4.29c0-2.223,1.934-4.289,4.18-4.289c3.728,0,3.914,3.229,5.179,5.824 c0.343,0.719,0.928,1.561,1.815,1.561c0.812,0,1.528-0.522,1.528-1.381c0-1.855-3.407-0.592-3.892-3.641 C8.795,2.278,8.788,2.192,8.788,2.106c0-1.154,1.083-2.146,2.229-2.105c0.688,0.023,1.101,0.047,1.646,0.531h-0.008 c0.21,0.193,0.365,0.459,0.529,0.686l-1.006,0.771c-0.117-0.219-0.227-0.397-0.421-0.545V1.437 c-0.187-0.172-0.521-0.164-0.757-0.164c-0.506,0-0.928,0.382-0.928,0.904C10.075,2.222,10.137,2.438,10.154,2.494z"/>
</g>
</svg>