<?xml version="1.0" encoding="utf-8"?>
<!-- Generator: Adobe Illustrator 16.0.0, SVG Export Plug-In . SVG Version: 6.00 Build 0)  -->
<!DOCTYPE svg PUBLIC "-//W3C//DTD SVG 1.1//EN" "http://www.w3.org/Graphics/SVG/1.1/DTD/svg11.dtd">
<svg version="1.1" xmlns="http://www.w3.org/2000/svg" xmlns:xlink="http://www.w3.org/1999/xlink" x="0px" y="0px"
	 width="12.556px" height="12px" viewBox="0 0 11.977 11.447" enable-background="new 0 0 11.977 11.447">
<g>
	<path fill="#007bb6" d="M1.435,2.668H1.419C0.554,2.668,0,2.074,0,1.334C0,0.578,0.577,0,1.45,0c0.882,0,1.427,0.578,1.435,1.334 C2.893,2.074,2.333,2.668,1.435,2.668z M2.721,11.447H0.149V3.72h2.572V11.447z M11.977,11.447H9.412V7.313 c0-1.037-0.374-1.746-1.302-1.746c-0.71,0-1.132,0.476-1.318,0.937C6.729,6.676,6.706,6.901,6.706,7.135v4.313H4.141 c0.031-7.002,0-7.729,0-7.729h2.564v1.123H6.69c0.337-0.529,0.943-1.302,2.332-1.302c1.691,0,2.955,1.106,2.955,3.478V11.447z"/>
</g>
</svg>