<?xml version="1.0" encoding="utf-8"?>
<!-- Generator: Adobe Illustrator 16.0.0, SVG Export Plug-In . SVG Version: 6.00 Build 0)  -->
<!DOCTYPE svg PUBLIC "-//W3C//DTD SVG 1.1//EN" "http://www.w3.org/Graphics/SVG/1.1/DTD/svg11.dtd">
<svg version="1.1" xmlns="http://www.w3.org/2000/svg" xmlns:xlink="http://www.w3.org/1999/xlink" x="0px" y="0px"
	 width="14.188px" height="12px" viewBox="0 0 13.975 11.82" enable-background="new 0 0 13.975 11.82">
<g>
	<path fill="#00ab6b" d="M4.655,11.353c0,0.241-0.117,0.468-0.382,0.468c-0.094,0-0.179-0.023-0.257-0.063L0.39,9.942 C0.173,9.833,0,9.552,0,9.318V0.429c0-0.195,0.095-0.375,0.305-0.375c0.125,0,0.233,0.063,0.343,0.116l3.984,1.996 c0.008,0.008,0.022,0.031,0.022,0.039L4.655,11.353L4.655,11.353z M9.318,9.747L5.154,7.673V2.994L9.318,9.747z M9.607,9.271 L6.566,4.328l2.526-4.109C9.177,0.077,9.334,0,9.498,0c0.07,0,0.142,0.017,0.203,0.046l4.219,2.105 c0.017,0.008,0.031,0.022,0.031,0.047C13.951,2.229,9.919,8.772,9.607,9.271z M13.974,11.353c0,0.258-0.148,0.437-0.406,0.437 c-0.133,0-0.258-0.038-0.367-0.101L9.763,9.973l4.211-6.84V11.353z"/>
</g>
</svg>