<?xml version="1.0" encoding="utf-8"?>
<!-- Generator: Adobe Illustrator 16.0.0, SVG Export Plug-In . SVG Version: 6.00 Build 0)  -->
<!DOCTYPE svg PUBLIC "-//W3C//DTD SVG 1.1//EN" "http://www.w3.org/Graphics/SVG/1.1/DTD/svg11.dtd">
<svg version="1.1" xmlns="http://www.w3.org/2000/svg" xmlns:xlink="http://www.w3.org/1999/xlink" x="0px" y="0px"
	 width="20.359px" height="12px" viewBox="0 0 17.965 10.589" enable-background="new 0 0 17.965 10.589">
<g>
	<path fill="#1a7bba" d="M11.346,9.537H3.189C1.426,9.537,0,8.109,0,6.355c0-1.6,1.186-2.917,2.721-3.143 C3.368,1.311,5.17,0,7.205,0c2.455,0,4.482,1.879,4.717,4.273c1.193,0.258,2.098,1.325,2.098,2.596 C14.02,8.343,12.818,9.537,11.346,9.537z M11.883,5.505c-0.039,0.24-0.102,0.482-0.18,0.718c-0.078,0.249-0.313,0.405-0.561,0.405 c-0.063,0-0.125-0.008-0.188-0.023c-0.32-0.109-0.483-0.443-0.382-0.757c0.115-0.358,0.179-0.731,0.179-1.115 c0-1.948-1.59-3.539-3.547-3.539c-1.404,0-2.667,0.834-3.229,2.082c0.546,0.142,1.053,0.42,1.466,0.826 c0.233,0.233,0.233,0.614,0,0.851c-0.233,0.234-0.616,0.233-0.85,0C4.217,4.578,3.717,4.369,3.188,4.369 c-1.1,0-1.996,0.889-1.996,1.987s0.896,1.987,1.996,1.987h8.156c0.818,0,1.48-0.663,1.48-1.475 C12.826,6.246,12.428,5.714,11.883,5.505z M15.213,9.357c-0.117,0.171-0.305,0.258-0.5,0.258c-0.115,0-0.232-0.031-0.335-0.103 c-0.272-0.179-0.343-0.554-0.155-0.827c0.366-0.537,0.553-1.161,0.553-1.816c0-0.646-0.187-1.277-0.553-1.816 c-0.188-0.271-0.117-0.639,0.155-0.825s0.647-0.108,0.835,0.164c0.498,0.731,0.756,1.59,0.756,2.479 C15.969,7.759,15.711,8.617,15.213,9.357z M16.92,10.324c-0.117,0.172-0.305,0.266-0.499,0.266c-0.108,0-0.226-0.031-0.327-0.103 C15.82,10.3,15.742,9.933,15.93,9.662c0.547-0.828,0.842-1.795,0.842-2.793s-0.295-1.965-0.842-2.783 c-0.188-0.272-0.109-0.646,0.164-0.826c0.272-0.188,0.639-0.116,0.826,0.164c0.686,1.014,1.045,2.207,1.045,3.445 C17.965,8.109,17.605,9.302,16.92,10.324z"/>
</g>
</svg>