<?xml version="1.0" encoding="utf-8"?>
<!-- Generator: Adobe Illustrator 16.0.0, SVG Export Plug-In . SVG Version: 6.00 Build 0)  -->
<!DOCTYPE svg PUBLIC "-//W3C//DTD SVG 1.1//EN" "http://www.w3.org/Graphics/SVG/1.1/DTD/svg11.dtd">
<svg version="1.1" id="Layer_1" xmlns="http://www.w3.org/2000/svg" xmlns:xlink="http://www.w3.org/1999/xlink" x="0px" y="0px"
	 width="10.582px" height="12px" viewBox="0 0 10.464 12.135" enable-background="new 0 0 10.464 12.135">
	<path fill-rule="evenodd" clip-rule="evenodd" fill="#6699CC" d="M10.464,12.135h-5.29v-2.73H2.156V7.153H0V4.677 c0-1.604,2.596-1.604,2.596,0V4.71c0.896-0.935,2.874-0.696,3.216,0.716c1.407-1.449,4.652-0.896,4.652,1.663V12.135L10.464,12.135z"/>
	<path fill-rule="evenodd" clip-rule="evenodd" fill="#6699CC" d="M1.298,1.198c0.552,0,1.003,0.45,1.003,1.002 c0,0.553-0.451,1.003-1.003,1.003S0.296,2.753,0.296,2.2C0.296,1.649,0.746,1.198,1.298,1.198L1.298,1.198z"/>
	<path fill-rule="evenodd" clip-rule="evenodd" fill="#6699CC" d="M4.009,0.901c0.789,0,1.433,0.644,1.433,1.432 S4.798,3.764,4.009,3.764c-0.788,0-1.432-0.644-1.432-1.432S3.22,0.901,4.009,0.901L4.009,0.901z"/>
	<path fill-rule="evenodd" clip-rule="evenodd" fill="#6699CC" d="M7.819,0c1.125,0,2.043,0.918,2.043,2.043 c0,1.126-0.918,2.043-2.043,2.043c-1.126,0-2.044-0.917-2.044-2.043C5.775,0.918,6.693,0,7.819,0L7.819,0z"/>
</svg>