<?xml version="1.0" encoding="utf-8"?>
<!-- Generator: Adobe Illustrator 16.0.0, SVG Export Plug-In . SVG Version: 6.00 Build 0)  -->
<!DOCTYPE svg PUBLIC "-//W3C//DTD SVG 1.1//EN" "http://www.w3.org/Graphics/SVG/1.1/DTD/svg11.dtd">
<svg version="1.1" xmlns="http://www.w3.org/2000/svg" xmlns:xlink="http://www.w3.org/1999/xlink" x="0px" y="0px"
	 width="9.352px" height="12px" viewBox="0 0 11.398 14.625" enable-background="new 0 0 11.398 14.625">
<g>
	<path fill="#c91517" d="M5.977,0c2.76,0,5.271,1.898,5.271,4.808c0,2.733-1.396,5.766-4.509,5.766c-0.738,0-1.67-0.369-2.03-1.055 c-0.668,2.646-0.613,3.041-2.092,5.063l-0.123,0.044l-0.079-0.088c-0.053-0.554-0.132-1.099-0.132-1.652 c0-1.793,0.826-4.386,1.23-6.126c-0.22-0.448-0.28-0.993-0.28-1.485c0-0.888,0.615-2.013,1.617-2.013 c0.736,0,1.134,0.563,1.134,1.257c0,1.143-0.773,2.215-0.773,3.322c0,0.757,0.624,1.283,1.354,1.283 c2.021,0,2.646-2.918,2.646-4.474c0-2.083-1.477-3.217-3.472-3.217c-2.32,0-4.113,1.67-4.113,4.025 c0,1.134,0.694,1.714,0.694,1.986c0,0.229-0.167,1.037-0.457,1.037c-0.044,0-0.105-0.018-0.149-0.024C0.457,8.077,0,6.398,0,5.247 C0,2.004,2.971,0,5.977,0z"/>
</g>
</svg>