<?xml version="1.0" encoding="utf-8"?>
<!-- Generator: Adobe Illustrator 16.0.0, SVG Export Plug-In . SVG Version: 6.00 Build 0)  -->
<!DOCTYPE svg PUBLIC "-//W3C//DTD SVG 1.1//EN" "http://www.w3.org/Graphics/SVG/1.1/DTD/svg11.dtd">
<svg version="1.1" xmlns="http://www.w3.org/2000/svg" xmlns:xlink="http://www.w3.org/1999/xlink" x="0px" y="0px"
	 width="12.711px" height="12px" viewBox="0 0 13.973 13.191" enable-background="new 0 0 13.973 13.191">
<g>
	<path fill="#ff5700" d="M13.123,7.984c0.063,0.241,0.094,0.49,0.094,0.748c0,2.464-2.783,4.46-6.214,4.46 c-3.423,0-6.206-1.996-6.206-4.46c0-0.25,0.031-0.499,0.085-0.731C0.36,7.742,0.001,7.212,0.001,6.596 c0-0.856,0.694-1.551,1.552-1.551c0.444,0,0.842,0.187,1.131,0.49C3.737,4.803,5.138,4.327,6.7,4.272l0.904-4.063 c0.031-0.141,0.18-0.233,0.318-0.202l2.879,0.631C10.987,0.265,11.383,0,11.838,0c0.646,0,1.168,0.521,1.168,1.161 c0,0.646-0.521,1.17-1.168,1.17c-0.641,0-1.162-0.522-1.162-1.162L8.073,0.592l-0.814,3.68c1.568,0.047,2.986,0.516,4.046,1.247 c0.281-0.296,0.68-0.475,1.115-0.475c0.857,0,1.553,0.692,1.553,1.551C13.973,7.204,13.629,7.727,13.123,7.984z M4.421,9.317 c0.647,0,1.17-0.521,1.17-1.17c0-0.64-0.521-1.161-1.17-1.161c-0.639,0-1.162,0.521-1.162,1.161 C3.259,8.795,3.783,9.317,4.421,9.317z M9.576,10.51c-0.109-0.109-0.289-0.109-0.398,0c-0.467,0.477-1.473,0.64-2.19,0.64 c-0.718,0-1.725-0.163-2.19-0.64c-0.109-0.109-0.289-0.109-0.397,0c-0.117,0.109-0.117,0.289,0,0.406 c0.739,0.74,2.168,0.795,2.589,0.795s1.849-0.055,2.589-0.795C9.694,10.799,9.694,10.627,9.576,10.51z M10.713,8.147 c0-0.64-0.523-1.161-1.162-1.161c-0.646,0-1.17,0.521-1.17,1.161c0,0.647,0.523,1.17,1.17,1.17 C10.19,9.317,10.713,8.795,10.713,8.147z"/>
</g>
</svg>