<?xml version="1.0" encoding="utf-8"?>
<!-- Generator: Adobe Illustrator 16.0.0, SVG Export Plug-In . SVG Version: 6.00 Build 0)  -->
<!DOCTYPE svg PUBLIC "-//W3C//DTD SVG 1.1//EN" "http://www.w3.org/Graphics/SVG/1.1/DTD/svg11.dtd">
<svg version="1.1" xmlns="http://www.w3.org/2000/svg" xmlns:xlink="http://www.w3.org/1999/xlink" x="0px" y="0px"
	 width="9.803px" height="12px" viewBox="0 0 11.415 13.973" enable-background="new 0 0 11.415 13.973">
<g>
	<path fill="#1a7bba" d="M7.493,12.289c0,0.383,0.093,0.757,0.257,1.076c-0.702,0.375-1.653,0.607-2.955,0.607 C0.646,13.973,0,11.041,0,10.652c0-0.397,0.234-1.699,1.7-1.699s1.668,1.255,1.668,1.513c0,0,0,0.266-0.179,0.632 c0.499,0.468,1.676,0.468,1.676,0.468c1.178,0,2.065-0.577,2.065-1.436c0-0.865-0.998-1.285-3.274-2.354 c-2.277-1.075-3.134-1.863-3.134-3.82c0-1.965,1.31-3.953,4.577-3.953s4.5,1.833,4.5,3.088S8.53,4.656,8.133,4.656 c-0.391,0-1.832,0.133-1.832-2.035c-0.258-0.289-1.38-0.289-1.38-0.289c-1.13,0-1.629,0.856-1.629,1.381 c0,0.529,0.21,1.185,2.565,1.965c3.61,1.2,3.743,2.768,3.743,4.21C8.413,10.044,7.493,11.058,7.493,12.289z M9.731,13.764 c-0.938,0-1.692-0.757-1.692-1.685c0-0.938,0.757-1.692,1.692-1.692c0.934,0,1.684,0.756,1.684,1.692 C11.415,13.007,10.667,13.764,9.731,13.764z"/>
</g>
</svg>