<?xml version="1.0" encoding="utf-8"?>
<!-- Generator: Adobe Illustrator 16.0.0, SVG Export Plug-In . SVG Version: 6.00 Build 0)  -->
<!DOCTYPE svg PUBLIC "-//W3C//DTD SVG 1.1//EN" "http://www.w3.org/Graphics/SVG/1.1/DTD/svg11.dtd">
<svg version="1.1" xmlns="http://www.w3.org/2000/svg" xmlns:xlink="http://www.w3.org/1999/xlink" x="0px" y="0px"
	 width="12.764px" height="12px" viewBox="0 0 12.74 11.977" enable-background="new 0 0 12.74 11.977">
<g>
	<path fill="#d2d000" d="M9.644,2.035c0.18,0.382,0.211,0.975,0.211,1.396c0,0.499-0.039,0.99-0.07,1.489 c0.063,0.031,0.148,0.055,0.219,0.055c0.281,0,0.516-0.21,0.795-0.21c0.266,0,0.648,0.188,0.648,0.498 c0,0.749-1.568,0.608-1.568,1.264c0,0.117,0.047,0.228,0.094,0.336c0.375,0.818,1.084,1.605,1.928,1.957 c0.201,0.086,0.404,0.133,0.623,0.18c0.141,0.031,0.219,0.132,0.219,0.271c0,0.531-1.35,0.749-1.709,0.805 c-0.154,0.24-0.039,0.811-0.451,0.811c-0.32,0-0.639-0.101-0.982-0.101c-0.164,0-0.328,0.008-0.482,0.039 c-0.929,0.154-1.24,1.152-2.761,1.152c-1.466,0-1.816-0.998-2.721-1.152c-0.164-0.031-0.328-0.039-0.492-0.039 c-0.351,0-0.686,0.115-0.967,0.115c-0.436,0-0.304-0.576-0.467-0.825C1.35,10.02,0,9.803,0,9.271c0-0.141,0.077-0.24,0.218-0.271 c0.219-0.047,0.422-0.094,0.624-0.18c0.835-0.344,1.56-1.139,1.926-1.957c0.047-0.108,0.094-0.219,0.094-0.336 c0-0.654-1.575-0.529-1.575-1.256c0-0.304,0.359-0.498,0.632-0.498c0.241,0,0.483,0.202,0.788,0.202 c0.085,0,0.171-0.016,0.249-0.055c-0.031-0.491-0.07-0.982-0.07-1.481c0-0.421,0.031-1.021,0.21-1.402 c0.687-1.481,1.849-2.021,3.4-2.035C7.897-0.016,9.058,0.772,9.644,2.035z"/>
</g>
</svg>