<?xml version="1.0" encoding="utf-8"?>
<!-- Generator: Adobe Illustrator 16.0.0, SVG Export Plug-In . SVG Version: 6.00 Build 0)  -->
<!DOCTYPE svg PUBLIC "-//W3C//DTD SVG 1.1//EN" "http://www.w3.org/Graphics/SVG/1.1/DTD/svg11.dtd">
<svg version="1.1" xmlns="http://www.w3.org/2000/svg" xmlns:xlink="http://www.w3.org/1999/xlink" x="0px" y="0px"
	 width="27.649px" height="12px" viewBox="0 0 17.965 7.797" enable-background="new 0 0 17.965 7.797">
<g>
	<path fill="#ff5500" d="M0.428,5.73L0.272,6.713c-0.008,0.039-0.031,0.07-0.07,0.07s-0.063-0.031-0.07-0.07L-0.001,5.73 l0.132-0.998c0.008-0.039,0.031-0.07,0.07-0.07s0.063,0.031,0.07,0.07L0.428,5.73z M1.145,5.73L0.943,7.313 c-0.008,0.039-0.039,0.07-0.078,0.07c-0.039,0-0.07-0.031-0.07-0.078L0.615,5.73c0.179-1.614,0.179-1.614,0.179-1.614 c0-0.039,0.031-0.07,0.07-0.07c0.039,0,0.07,0.031,0.078,0.07L1.145,5.73z M1.855,5.73L1.66,7.578c0,0.047-0.039,0.086-0.085,0.086 c-0.046,0-0.086-0.039-0.094-0.086L1.317,5.73L1.481,3.82c0.008-0.055,0.047-0.094,0.094-0.094c0.047,0,0.085,0.04,0.085,0.094 L1.855,5.73z M2.573,5.73l-0.18,1.901C2.385,7.695,2.339,7.734,2.284,7.734c-0.055,0-0.102-0.039-0.102-0.102L2.019,5.73 l0.164-1.965c0-0.063,0.047-0.102,0.102-0.102c0.055,0,0.101,0.039,0.109,0.102L2.573,5.73z M3.29,5.73L3.126,7.648 C3.119,7.718,3.064,7.773,3.001,7.773S2.884,7.719,2.884,7.648L2.728,5.73l0.156-1.824c0-0.063,0.055-0.117,0.117-0.117 s0.117,0.055,0.125,0.117L3.29,5.73z M4.023,5.73L3.859,7.648c0,0.078-0.063,0.141-0.133,0.141c-0.078,0-0.132-0.063-0.14-0.141 L3.446,5.73c0.141-2.963,0.141-2.963,0.141-2.963c0.008-0.078,0.062-0.141,0.14-0.141c0.07,0,0.133,0.063,0.133,0.141L4.023,5.73z M4.74,5.746L4.592,7.648c0,0.086-0.07,0.147-0.148,0.147c-0.085,0-0.148-0.063-0.156-0.147L4.163,5.746 c0.125-3.649,0.125-3.649,0.125-3.649C4.296,2.012,4.358,1.95,4.444,1.95c0.078,0,0.148,0.063,0.148,0.147L4.74,5.746z M5.496,5.73 l-0.14,1.887C5.348,7.711,5.278,7.781,5.184,7.781c-0.085,0-0.156-0.07-0.164-0.164L4.896,5.73l0.125-3.945 c0-0.094,0.078-0.172,0.164-0.172c0.094,0,0.164,0.078,0.172,0.172L5.496,5.73z M6.237,5.73L6.113,1.652 C6.105,1.551,6.027,1.465,5.925,1.465c-0.093,0-0.179,0.086-0.179,0.188L5.636,5.73l0.109,1.879c0.008,0.102,0.086,0.18,0.179,0.18 c0.102,0,0.18-0.078,0.188-0.18L6.237,5.73z M6.986,5.73L6.869,7.594c0,0.109-0.086,0.195-0.195,0.195 c-0.109,0-0.188-0.086-0.196-0.195L6.369,5.73l0.109-3.978c0-0.109,0.086-0.195,0.195-0.195c0.109,0,0.195,0.086,0.195,0.195 L6.986,5.73z M7.75,5.738l-0.11,1.84c0,0.117-0.094,0.211-0.211,0.211c-0.116,0-0.21-0.094-0.218-0.211l-0.094-1.84l0.094-3.836 c0.008-0.125,0.102-0.219,0.218-0.219c0.117,0,0.203,0.094,0.211,0.219L7.75,5.738z M8.506,5.738L8.412,1.169 c0-0.078-0.039-0.147-0.101-0.187C8.272,0.959,8.233,0.943,8.186,0.943S8.101,0.959,8.062,0.982C8,1.021,7.961,1.091,7.961,1.169 L7.953,1.216L7.875,5.73c0,0,0,0.008,0.086,1.84c0,0,0,0,0,0.008c0,0.047,0.016,0.094,0.047,0.133 c0.047,0.055,0.108,0.086,0.179,0.086c0.063,0,0.117-0.031,0.156-0.07C8.388,7.688,8.412,7.633,8.412,7.57L8.42,7.383L8.506,5.738z M9.184,7.539c0,0.133-0.108,0.242-0.241,0.242c-0.133,0-0.242-0.109-0.25-0.242L8.646,6.65L8.599,5.738l0.094-4.959V0.756 c0.008-0.07,0.039-0.141,0.094-0.188c0.039-0.031,0.094-0.055,0.156-0.055c0.039,0,0.086,0.016,0.117,0.039 c0.07,0.04,0.117,0.118,0.124,0.204l0.109,4.982L9.184,7.539z M15.759,7.789c-6.122,0-6.13,0-6.13,0 C9.496,7.773,9.386,7.672,9.386,7.531v-7.01c0-0.133,0.047-0.195,0.22-0.257C10.035,0.093,10.518,0,11.016,0 c2.035,0,3.705,1.559,3.883,3.547c0.267-0.109,0.556-0.172,0.859-0.172c1.215,0,2.205,0.99,2.205,2.215 C17.964,6.807,16.973,7.789,15.759,7.789z"/>
</g>
</svg>