<?xml version="1.0" encoding="utf-8"?>
<!-- Generator: Adobe Illustrator 16.0.0, SVG Export Plug-In . SVG Version: 6.00 Build 0)  -->
<!DOCTYPE svg PUBLIC "-//W3C//DTD SVG 1.1//EN" "http://www.w3.org/Graphics/SVG/1.1/DTD/svg11.dtd">
<svg version="1.1" xmlns="http://www.w3.org/2000/svg" xmlns:xlink="http://www.w3.org/1999/xlink" x="0px" y="0px"
	 width="12px" height="12px" viewBox="0 0 11.977 11.977" enable-background="new 0 0 11.977 11.977">
<g>
	<path fill="#2ebd59" d="M5.989,11.977c-3.307,0-5.988-2.683-5.988-5.987C0.001,2.684,2.682,0,5.989,0 c3.306,0,5.988,2.683,5.988,5.987C11.977,9.293,9.295,11.977,5.989,11.977z M10.067,4.281c-1.35-0.787-3.197-1.154-4.958-1.154 c-1.037,0-1.989,0.117-2.84,0.367c-0.218,0.063-0.42,0.25-0.42,0.576c0,0.319,0.241,0.569,0.562,0.569 c0.117,0,0.227-0.039,0.313-0.063c0.756-0.211,1.574-0.289,2.394-0.289c1.623,0,3.306,0.358,4.39,1.006 c0.109,0.063,0.189,0.094,0.314,0.094c0.295,0,0.561-0.234,0.561-0.561C10.379,4.538,10.254,4.39,10.067,4.281z M9.262,6.284 C8.071,5.575,6.557,5.184,4.991,5.184c-1.006,0-1.692,0.142-2.362,0.328c-0.25,0.07-0.375,0.242-0.375,0.499 s0.211,0.468,0.469,0.468c0.109,0,0.171-0.03,0.288-0.063c0.546-0.148,1.2-0.258,1.957-0.258c1.481,0,2.832,0.391,3.806,0.967 C8.86,7.172,8.946,7.227,9.071,7.227c0.264,0,0.467-0.21,0.467-0.467C9.537,6.55,9.459,6.401,9.262,6.284z M8.553,8.039 C7.547,7.438,6.378,7.142,5.069,7.142c-0.766,0-1.497,0.103-2.237,0.267c-0.18,0.039-0.328,0.155-0.328,0.405 c0,0.194,0.148,0.381,0.382,0.381c0.07,0,0.195-0.038,0.288-0.063c0.609-0.124,1.248-0.21,1.896-0.21 c1.146,0,2.229,0.28,3.094,0.804c0.094,0.056,0.156,0.086,0.258,0.086c0.195,0,0.367-0.155,0.367-0.375 C8.789,8.218,8.703,8.132,8.553,8.039z"/>
</g>
</svg>