<?xml version="1.0" encoding="utf-8"?>
<!-- Generator: Adobe Illustrator 16.0.0, SVG Export Plug-In . SVG Version: 6.00 Build 0)  -->
<!DOCTYPE svg PUBLIC "-//W3C//DTD SVG 1.1//EN" "http://www.w3.org/Graphics/SVG/1.1/DTD/svg11.dtd">
<svg version="1.1" xmlns="http://www.w3.org/2000/svg" xmlns:xlink="http://www.w3.org/1999/xlink" x="0px" y="0px"
	 width="14px" height="12px" viewBox="0 0 13.973 11.977" enable-background="new 0 0 13.973 11.977">
<g>
	<path fill="#00adee" d="M10.424,7.096L7.017,9.582c-0.125,1.342-1.263,2.395-2.636,2.395c-1.263,0-2.331-0.896-2.588-2.09 L0.001,9.169V5.824l3.033,1.225C3.43,6.807,3.89,6.674,4.383,6.674c0.094,0,0.188,0.008,0.273,0.016L6.87,3.516 C6.885,1.574,8.475,0,10.424,0c1.957,0,3.549,1.59,3.549,3.547C13.973,5.512,12.381,7.096,10.424,7.096z M4.382,7.375 c-0.14,0-0.28,0.016-0.421,0.047L4.771,7.75C5.567,8.07,5.957,8.967,5.636,9.762c-0.318,0.795-1.224,1.187-2.02,0.857 c-0.318-0.125-0.639-0.259-0.958-0.383c0.328,0.616,0.975,1.037,1.723,1.037c1.084,0,1.95-0.865,1.95-1.948 C6.332,8.241,5.466,7.375,4.382,7.375z M10.424,1.169c-1.318,0-2.385,1.067-2.385,2.378c0,1.318,1.066,2.379,2.385,2.379 c1.313,0,2.379-1.061,2.379-2.379C12.803,2.237,11.737,1.169,10.424,1.169z M10.432,5.441c-1.053,0-1.9-0.85-1.9-1.901 c0-1.053,0.85-1.902,1.9-1.902c1.045,0,1.902,0.85,1.902,1.902C12.334,4.591,11.477,5.441,10.432,5.441z"/>
</g>
</svg>