<?xml version="1.0" encoding="utf-8"?>
<!-- Generator: Adobe Illustrator 16.0.0, SVG Export Plug-In . SVG Version: 6.00 Build 0)  -->
<!DOCTYPE svg PUBLIC "-//W3C//DTD SVG 1.1//EN" "http://www.w3.org/Graphics/SVG/1.1/DTD/svg11.dtd">
<svg version="1.1" xmlns="http://www.w3.org/2000/svg" xmlns:xlink="http://www.w3.org/1999/xlink" x="0px" y="0px"
	 width="15.715px" height="12px" viewBox="0 0 14.971 11.432" enable-background="new 0 0 14.971 11.432">
<g>
	<path fill="#eb4924" d="M8.282,3.361c0-0.438-0.359-0.795-0.796-0.795c-0.437,0-0.796,0.357-0.796,0.795v4.771 c0,1.824-1.513,3.299-3.345,3.299c-1.849,0-3.345-1.498-3.345-3.346c0,0,0-0.023,0-2.074h2.557v2.043 c0,0.445,0.359,0.795,0.796,0.795c0.438,0,0.795-0.349,0.795-0.794V3.221C4.148,1.436,5.677,0,7.486,0 c1.816,0,3.337,1.442,3.337,3.244v1.061L9.302,4.757l-1.02-0.476V3.361z M14.972,6.012c0,2.051,0,2.074,0,2.074 c0,1.848-1.498,3.346-3.346,3.346c-1.84,0-3.346-1.481-3.346-3.313V6.028l1.021,0.478l1.521-0.453v2.105 c0,0.437,0.357,0.786,0.795,0.786s0.795-0.351,0.795-0.786V6.012H14.972z"/>
</g>
</svg>