<?xml version="1.0" encoding="utf-8"?>
<!-- Generator: Adobe Illustrator 16.0.0, SVG Export Plug-In . SVG Version: 6.00 Build 0)  -->
<!DOCTYPE svg PUBLIC "-//W3C//DTD SVG 1.1//EN" "http://www.w3.org/Graphics/SVG/1.1/DTD/svg11.dtd">
<svg version="1.1" xmlns="http://www.w3.org/2000/svg" xmlns:xlink="http://www.w3.org/1999/xlink" x="0px" y="0px"
	 width="20.39px" height="12px" viewBox="0 0 17.928 10.551" enable-background="new 0 0 17.928 10.551">
<g>
	<path fill="#589442" d="M17.947,1.665c-0.467,0.546-0.811,1.279-0.895,1.785c0.537,0.74,0.855,1.646,0.855,2.629 c0,2.471-2.004,4.467-4.467,4.467c-1.404,0-2.65-0.639-3.471-1.645c0,0-0.365,0.437-1.005,1.396 c-0.109-0.226-0.663-1.014-0.998-1.403c-0.819,1.015-2.074,1.652-3.479,1.652c-2.464,0-4.468-1.996-4.468-4.467 c0-0.982,0.319-1.889,0.857-2.629c-0.086-0.506-0.43-1.239-0.896-1.785h2.847c1.527-1.021,3.75-1.66,6.137-1.66 c2.386,0,4.468,0.639,5.996,1.66H17.947z M4.489,2.476c-1.979,0-3.595,1.614-3.595,3.604s1.614,3.602,3.595,3.602 c1.988,0,3.604-1.612,3.604-3.602S6.478,2.476,4.489,2.476z M4.442,8.238c-1.201,0-2.176-0.976-2.176-2.175 c0-1.193,0.975-2.168,2.176-2.168S6.61,4.87,6.61,6.063C6.61,7.265,5.644,8.238,4.442,8.238z M4.442,4.558 c-0.834,0-1.505,0.68-1.505,1.506c0,0.834,0.671,1.505,1.505,1.505c0.826,0,1.505-0.671,1.505-1.505 C5.947,5.236,5.269,4.558,4.442,4.558z M4.333,6.796c-0.404,0-0.731-0.328-0.731-0.732c0-0.397,0.327-0.726,0.731-0.726 c0.398,0,0.727,0.327,0.727,0.726C5.059,6.468,4.732,6.796,4.333,6.796z M8.966,0.745c-1.6,0-3.188,0.305-4.469,0.857 C6.969,1.61,8.966,3.606,8.966,6.079c0-2.426,1.926-4.398,4.334-4.469C12.015,1.05,10.564,0.745,8.966,0.745z M13.441,2.476 c-1.988,0-3.604,1.614-3.604,3.604s1.613,3.602,3.604,3.602c1.988,0,3.594-1.612,3.594-3.602S15.429,2.476,13.441,2.476z M13.433,8.224c-1.193,0-2.168-0.968-2.168-2.168c0-1.201,0.975-2.168,2.168-2.168c1.201,0,2.176,0.967,2.176,2.168 C15.609,7.256,14.634,8.224,13.433,8.224z M13.433,4.55c-0.826,0-1.504,0.68-1.504,1.506c0,0.834,0.678,1.504,1.504,1.504 c0.834,0,1.506-0.67,1.506-1.504C14.939,5.228,14.267,4.55,13.433,4.55z M13.323,6.788c-0.406,0-0.732-0.328-0.732-0.732 c0-0.405,0.326-0.726,0.732-0.726s0.732,0.319,0.732,0.726C14.058,6.46,13.73,6.788,13.323,6.788z"/>
</g>
</svg>