<?xml version="1.0" encoding="utf-8"?>
<!-- Generator: Adobe Illustrator 16.0.0, SVG Export Plug-In . SVG Version: 6.00 Build 0)  -->
<!DOCTYPE svg PUBLIC "-//W3C//DTD SVG 1.1//EN" "http://www.w3.org/Graphics/SVG/1.1/DTD/svg11.dtd">
<svg version="1.1" xmlns="http://www.w3.org/2000/svg" xmlns:xlink="http://www.w3.org/1999/xlink" x="0px" y="0px"
	 width="14.785px" height="12px" viewBox="0 0 13.5 10.957" enable-background="new 0 0 13.5 10.957">
<g>
	<path fill="#00b6f1" d="M12.075,2.788c0.009,0.119,0.009,0.238,0.009,0.357c0,3.628-2.764,7.812-7.811,7.812 c-1.556,0-3.001-0.451-4.216-1.232C0.278,9.75,0.491,9.757,0.72,9.757c1.283,0,2.465-0.434,3.408-1.172 C2.922,8.559,1.91,7.77,1.562,6.682c0.17,0.024,0.341,0.041,0.519,0.041c0.247,0,0.493-0.033,0.723-0.095 C1.545,6.375,0.602,5.27,0.602,3.935c0-0.008,0-0.025,0-0.034c0.365,0.204,0.79,0.332,1.241,0.348 c-0.74-0.493-1.225-1.334-1.225-2.286c0-0.51,0.137-0.978,0.374-1.385c1.352,1.666,3.383,2.754,5.661,2.873 C6.61,3.247,6.585,3.034,6.585,2.822c0-1.513,1.224-2.745,2.745-2.745c0.79,0,1.504,0.332,2.006,0.867 c0.62-0.119,1.216-0.348,1.742-0.663c-0.204,0.637-0.639,1.173-1.207,1.513c0.553-0.06,1.088-0.212,1.581-0.425 C13.078,1.913,12.609,2.397,12.075,2.788z"/>
</g>
</svg>