<?xml version="1.0" encoding="utf-8"?>
<!-- Generator: Adobe Illustrator 16.0.0, SVG Export Plug-In . SVG Version: 6.00 Build 0)  -->
<!DOCTYPE svg PUBLIC "-//W3C//DTD SVG 1.1//EN" "http://www.w3.org/Graphics/SVG/1.1/DTD/svg11.dtd">
<svg version="1.1" xmlns="http://www.w3.org/2000/svg" xmlns:xlink="http://www.w3.org/1999/xlink" x="0px" y="0px"
	 width="13.872px" height="12px" viewBox="0 0 12.693 10.98" enable-background="new 0 0 12.693 10.98">
<g>
	<path fill="#45bbff" d="M10.098,7.621c-1.731,2.238-3.182,3.36-4.382,3.36c-0.741,0-1.365-0.687-1.871-2.051 C3.501,7.683,3.158,6.427,2.816,5.172C2.441,3.808,2.028,3.129,1.592,3.129c-0.095,0-0.422,0.195-0.99,0.594L0,2.957 c0.624-0.553,1.239-1.114,1.856-1.651c0.826-0.732,1.457-1.101,1.879-1.14c0.99-0.094,1.59,0.577,1.824,2.021 c0.242,1.56,0.421,2.533,0.515,2.907C6.362,6.389,6.667,7.035,7.01,7.035c0.265,0,0.663-0.413,1.2-1.255 c0.53-0.843,0.812-1.481,0.851-1.918c0.07-0.727-0.21-1.084-0.851-1.084c-0.304,0-0.615,0.07-0.943,0.202 c0.625-2.043,1.816-3.033,3.58-2.979c1.302,0.039,1.918,0.89,1.84,2.543C12.633,3.777,11.767,5.469,10.098,7.621z"/>
</g>
</svg>