<?xml version="1.0" encoding="utf-8"?>
<!-- Generator: Adobe Illustrator 16.0.0, SVG Export Plug-In . SVG Version: 6.00 Build 0)  -->
<!DOCTYPE svg PUBLIC "-//W3C//DTD SVG 1.1//EN" "http://www.w3.org/Graphics/SVG/1.1/DTD/svg11.dtd">
<svg version="1.1" xmlns="http://www.w3.org/2000/svg" xmlns:xlink="http://www.w3.org/1999/xlink" x="0px" y="0px"
	 width="21.03px" height="12px" viewBox="0 0 14.977 8.546" enable-background="new 0 0 14.977 8.546">
<g>
	<path fill="#45668e" d="M13.785,2.911c-1.513,2.012-1.677,1.824-0.431,2.986c1.201,1.114,1.451,1.653,1.49,1.724 c0,0,0.5,0.873-0.553,0.881l-1.996,0.031c-0.43,0.086-0.998-0.305-0.998-0.305c-0.75-0.516-1.451-1.848-1.996-1.676 c0,0-0.563,0.179-0.547,1.379C8.763,8.189,8.638,8.33,8.638,8.33s-0.14,0.149-0.412,0.172H7.33C5.357,8.626,3.618,6.81,3.618,6.81 S1.715,4.845,0.047,0.923c-0.109-0.257,0.008-0.382,0.008-0.382s0.117-0.148,0.444-0.148l2.136-0.016 c0.203,0.031,0.343,0.141,0.343,0.141s0.125,0.086,0.188,0.249c0.351,0.874,0.803,1.669,0.803,1.669 c0.78,1.605,1.31,1.879,1.614,1.715c0,0,0.397-0.241,0.312-2.184C5.865,1.266,5.668,0.945,5.668,0.945 C5.49,0.704,5.154,0.635,5.006,0.611C4.888,0.596,5.084,0.314,5.341,0.189C5.723,0.002,6.4-0.006,7.205,0.002 c0.631,0.008,0.81,0.047,1.053,0.102c0.74,0.18,0.49,0.865,0.49,2.52c0,0.529-0.103,1.271,0.28,1.512 c0.164,0.109,0.568,0.016,1.566-1.684c0,0,0.469-0.811,0.834-1.755c0.063-0.171,0.195-0.241,0.195-0.241s0.125-0.07,0.297-0.047 l2.246-0.016c0.678-0.086,0.787,0.227,0.787,0.227C15.072,0.938,14.705,1.687,13.785,2.911z"/>
</g>
</svg>