<?xml version="1.0" encoding="utf-8"?>
<!-- Generator: Adobe Illustrator 16.0.0, SVG Export Plug-In . SVG Version: 6.00 Build 0)  -->
<!DOCTYPE svg PUBLIC "-//W3C//DTD SVG 1.1//EN" "http://www.w3.org/Graphics/SVG/1.1/DTD/svg11.dtd">
<svg version="1.1" xmlns="http://www.w3.org/2000/svg" xmlns:xlink="http://www.w3.org/1999/xlink" x="0px" y="0px"
	 width="10.154px" height="12px" viewBox="0 0 10.979 12.975" enable-background="new 0 0 10.979 12.975">
<g>
	<path fill="#af0606" d="M2.651,8.72C2.549,8.891,2.417,9.077,2.143,9.077H0.281c-0.109,0-0.195-0.055-0.242-0.133 c-0.047-0.077-0.055-0.179,0-0.279l1.973-3.494c0.008,0,0.008,0,0-0.008L0.756,2.988C0.701,2.886,0.694,2.778,0.748,2.7 c0.047-0.078,0.14-0.117,0.249-0.117h1.864c0.279,0,0.421,0.188,0.515,0.351c1.271,2.222,1.278,2.229,1.278,2.229 S4.577,5.296,2.651,8.72z M10.938,0.446L6.823,7.729c-0.009,0-0.009,0.008,0,0.008l2.62,4.796c0.055,0.102,0.055,0.211,0.008,0.287 c-0.056,0.078-0.142,0.117-0.25,0.117H7.337c-0.281,0-0.43-0.187-0.515-0.351C4.178,7.744,4.178,7.736,4.178,7.736 S4.311,7.502,8.32,0.39c0.102-0.18,0.219-0.351,0.499-0.351h1.879c0.108,0,0.193,0.039,0.24,0.115 C10.993,0.235,10.993,0.345,10.938,0.446z"/>
</g>
</svg>