<?xml version="1.0" encoding="utf-8"?>
<!-- Generator: Adobe Illustrator 16.0.0, SVG Export Plug-In . SVG Version: 6.00 Build 0)  -->
<!DOCTYPE svg PUBLIC "-//W3C//DTD SVG 1.1//EN" "http://www.w3.org/Graphics/SVG/1.1/DTD/svg11.dtd">
<svg version="1.1" xmlns="http://www.w3.org/2000/svg" xmlns:xlink="http://www.w3.org/1999/xlink" x="0px" y="0px"
	 width="9.147px" height="12px" viewBox="0.081 0 10.652 13.975" enable-background="new 0.081 0 10.652 13.975">
<g>
	<path fill="#af0606" d="M3.877,8.873c0,0,0,0-0.936,0.304C0.844,9.848,0.774,9.864,0.665,9.864 C0.494,9.856,0.339,9.755,0.244,9.583C0.181,9.458,0.135,9.248,0.111,8.999c-0.086-0.765,0.016-1.91,0.242-2.27 c0.108-0.172,0.265-0.258,0.437-0.25c0.116,0,0.21,0.047,2.473,0.967c0,0-0.009,0.008,0.653,0.266 C4.15,7.806,4.3,8.048,4.283,8.328C4.267,8.6,4.111,8.802,3.877,8.873z M5.062,6.666C4.953,6.697,4.61,6.799,4.174,6.112 c-2.869-4.53-2.947-4.663-2.947-4.663C1.187,1.286,1.234,1.107,1.374,0.967c0.429-0.444,2.761-1.1,3.368-0.942 c0.194,0.047,0.335,0.171,0.382,0.351c0.031,0.194,0.313,4.397,0.359,5.341C5.523,6.525,5.179,6.627,5.062,6.666z M5.445,11.274 c-0.008,2.198-0.008,2.275-0.047,2.378C5.335,13.816,5.195,13.925,5,13.965c-0.561,0.095-2.314-0.555-2.682-0.989 c-0.078-0.086-0.117-0.188-0.133-0.281c-0.008-0.07,0.008-0.142,0.031-0.203c0.039-0.109,0.108-0.194,1.676-2.051 c0,0,0.008,0,0.469-0.545C4.517,9.7,4.798,9.637,5.054,9.731c0.258,0.102,0.397,0.319,0.391,0.554 C5.445,10.284,5.445,10.3,5.445,11.274z M10.443,7.018c-0.094,0.063-0.188,0.093-2.566,0.67c-0.381,0.086-0.592,0.141-0.709,0.18 c0,0,0,0,0.009-0.016C6.942,7.915,6.677,7.805,6.529,7.571c-0.146-0.233-0.14-0.49,0-0.678c0,0,0.008-0.009,0.585-0.795 c1.279-1.747,1.342-1.833,1.437-1.896c0.147-0.101,0.325-0.101,0.506-0.016c0.508,0.24,1.528,1.763,1.592,2.347 c0,0.008,0,0.016,0,0.023C10.662,6.752,10.592,6.916,10.443,7.018z M8.953,12.889c-0.178,0.069-0.356,0.055-0.489-0.056 c-0.095-0.069-0.188-0.211-1.437-2.237L6.661,9.996c-0.14-0.219-0.117-0.5,0.063-0.718c0.171-0.21,0.421-0.28,0.646-0.202 c0,0,0.008,0.008,0.929,0.311c2.098,0.688,2.168,0.712,2.254,0.78c0.141,0.109,0.203,0.272,0.172,0.477 C10.646,11.204,9.484,12.677,8.953,12.889z"/>
</g>
</svg>