<?xml version="1.0" encoding="utf-8"?>
<!-- Generator: Adobe Illustrator 16.0.0, SVG Export Plug-In . SVG Version: 6.00 Build 0)  -->
<!DOCTYPE svg PUBLIC "-//W3C//DTD SVG 1.1//EN" "http://www.w3.org/Graphics/SVG/1.1/DTD/svg11.dtd">
<svg version="1.1" id="Layer_1" xmlns="http://www.w3.org/2000/svg" xmlns:xlink="http://www.w3.org/1999/xlink" x="0px" y="0px"
	 width="28.46px" height="12px" viewBox="0 0 29.219 12.32" enable-background="new 0 0 29.219 12.32">
<path id="u_2_" fill="#b31217" d="M10.906,9.994H9.798V9.353c-0.421,0.481-0.776,0.725-1.165,0.725c-0.34,0-0.577-0.16-0.695-0.45 C7.865,9.45,7.815,9.175,7.815,8.77V4.105h1.108v4.373c0,0.248,0,0.351,0,0.409C8.948,9.05,9.018,9.11,9.159,9.11 c0.212,0,0.403-0.184,0.639-0.515v-4.49h1.107V9.994z"/>
<path id="o_2_" fill="#b31217" d="M6.998,6.029c0-0.629-0.126-1.102-0.35-1.399C6.354,4.227,5.89,4.062,5.424,4.062 c-0.528,0-0.931,0.165-1.225,0.567C3.972,4.927,3.851,5.405,3.851,6.034L3.849,8.128c0,0.626,0.108,1.059,0.336,1.354 c0.295,0.401,0.772,0.614,1.239,0.614c0.466,0,0.953-0.213,1.248-0.614c0.223-0.295,0.326-0.728,0.326-1.354V6.029z M5.89,8.245 c0.059,0.583-0.122,0.872-0.466,0.872c-0.345,0-0.525-0.289-0.467-0.872V5.912C4.899,5.329,5.079,5.056,5.424,5.056 c0.344,0,0.525,0.273,0.467,0.856L5.89,8.245z"/>
<path id="y_2_" fill="#b31217" d="M2.624,6.787v3.207H1.458V6.787c0,0-1.209-3.933-1.458-4.666h1.225l0.818,3.072l0.814-3.072h1.225 L2.624,6.787z"/>
<g>
	<g>
		<path fill="#b31217" d="M26.652,5.742c0-0.539-0.14-0.701-0.489-0.701c-0.353,0-0.502,0.148-0.502,0.693V6.38l0.991-0.001V5.742z"/>
		<path fill="#b31217" d="M22.302,5.041c-0.174,0-0.372,0.092-0.549,0.266l-0.001,3.537c0.176,0.177,0.376,0.266,0.55,0.266 c0.305,0,0.442-0.223,0.442-0.807V5.796C22.744,5.212,22.607,5.041,22.302,5.041z"/>
		<path fill="#b31217" d="M29.045,2.758c0,0-0.17-1.195-0.692-1.721c-0.662-0.69-1.404-0.694-1.745-0.734 c-2.437-0.176-6.092-0.176-6.092-0.176h-0.008c0,0-3.655,0-6.092,0.176c-0.341,0.04-1.083,0.044-1.745,0.734 c-0.522,0.525-0.692,1.721-0.692,1.721s-0.174,1.402-0.174,2.806v1.315c0,1.402,0.174,2.806,0.174,2.806s0.17,1.194,0.692,1.721 c0.662,0.69,1.532,0.668,1.92,0.74c1.394,0.134,5.921,0.175,5.921,0.175s3.659-0.006,6.096-0.181 c0.341-0.041,1.083-0.044,1.745-0.734c0.522-0.526,0.692-1.721,0.692-1.721s0.174-1.403,0.174-2.806V5.564 C29.219,4.16,29.045,2.758,29.045,2.758z M15.629,9.994h-1.166V3.288h-1.225V2.181l3.674-0.001v1.108h-1.283V9.994z M19.828,9.994 h-1.107V9.353c-0.421,0.481-0.776,0.725-1.165,0.725c-0.341,0-0.577-0.16-0.695-0.45c-0.072-0.177-0.123-0.452-0.123-0.857V4.162 h1.108v4.315c0,0.248,0,0.351,0,0.409c0.025,0.163,0.095,0.223,0.236,0.223c0.212,0,0.403-0.184,0.639-0.515V4.162h1.107V9.994z M23.853,8.245c0,0.539-0.047,0.919-0.117,1.166c-0.141,0.434-0.448,0.658-0.868,0.658c-0.376,0-0.76-0.226-1.113-0.662 l-0.001,0.587h-1.05V2.18h1.05l-0.001,2.548c0.341-0.42,0.727-0.658,1.115-0.658c0.42,0,0.703,0.242,0.844,0.679 c0.07,0.234,0.142,0.612,0.142,1.164V8.245z M26.172,9.11c0.26,0,0.411-0.141,0.472-0.423c0.01-0.058,0.008-0.31,0.008-0.733 h1.108v0.165c0,0.341-0.028,0.581-0.038,0.688c-0.035,0.233-0.118,0.445-0.247,0.632c-0.292,0.423-0.725,0.632-1.276,0.632 c-0.553,0-0.973-0.198-1.278-0.597c-0.224-0.292-0.368-0.726-0.368-1.345V6.087c0-0.623,0.131-1.104,0.355-1.399 c0.306-0.398,0.726-0.609,1.265-0.609c0.529,0,0.95,0.211,1.246,0.609c0.221,0.295,0.344,0.751,0.344,1.374v1.191H25.66v1.048 C25.656,8.839,25.81,9.11,26.172,9.11z"/>
	</g>
</g>
</svg>