<?xml version="1.0" encoding="utf-8"?>
<!-- Generator: Adobe Illustrator 16.0.0, SVG Export Plug-In . SVG Version: 6.00 Build 0)  -->
<!DOCTYPE svg PUBLIC "-//W3C//DTD SVG 1.1//EN" "http://www.w3.org/Graphics/SVG/1.1/DTD/svg11.dtd">
<svg version="1.1" id="Layer_1" xmlns="http://www.w3.org/2000/svg" xmlns:xlink="http://www.w3.org/1999/xlink" x="0px" y="0px"
	 width="64px" height="55px" viewBox="0 5 64 55" enable-background="new 0 5 64 55">
<g>
	<path d="M53,27h-1v-5c0-0.17-0.229-17-20-17C12.229,5,12,21.83,12,22v5h-1C4.935,27,0,31.935,0,38c0,6.064,4.935,11,11,11h3V31v-4 v-5c0-0.612,0.205-15,18-15c17.738,0,17.998,14.389,18,15v5v1v20v1v3.323l-13,5.2V54H27v6h9.191L52,53.677V49h1 c6.064,0,11-4.936,11-11C64,31.935,59.064,27,53,27z M12,47h-1c-4.963,0-9-4.038-9-9s4.037-9,9-9h1v2V47z M29,58v-2h6v2H29z M53,47 h-1V29h1c4.963,0,9,4.038,9,9S57.963,47,53,47z"/>
</g>
</svg>