<?xml version="1.0" encoding="utf-8"?>
<!-- Generator: Adobe Illustrator 16.0.0, SVG Export Plug-In . SVG Version: 6.00 Build 0)  -->
<!DOCTYPE svg PUBLIC "-//W3C//DTD SVG 1.1//EN" "http://www.w3.org/Graphics/SVG/1.1/DTD/svg11.dtd">
<svg version="1.1" xmlns="http://www.w3.org/2000/svg" xmlns:xlink="http://www.w3.org/1999/xlink" x="0px" y="0px"
	 width="14.484px" height="14.484px" viewBox="9.758 9.758 14.484 14.484" enable-background="new 9.758 9.758 14.484 14.484">
<g>
	<path d="M10.05,23.95c0.39,0.39,1.024,0.39,1.414,0L17,18.414l5.536,5.536c0.39,0.39,1.024,0.39,1.414,0s0.39-1.024,0-1.414 L18.414,17l5.536-5.536c0.39-0.39,0.39-1.024,0-1.414c-0.39-0.39-1.024-0.39-1.414,0L17,15.586l-5.536-5.536 c-0.39-0.39-1.024-0.39-1.414,0c-0.39,0.39-0.39,1.024,0,1.414L15.586,17l-5.536,5.536C9.66,22.926,9.66,23.561,10.05,23.95z"/>
</g>
</svg>