<?xml version="1.0" encoding="utf-8"?>
<!-- Generator: Adobe Illustrator 16.0.0, SVG Export Plug-In . SVG Version: 6.00 Build 0)  -->
<!DOCTYPE svg PUBLIC "-//W3C//DTD SVG 1.1//EN" "http://www.w3.org/Graphics/SVG/1.1/DTD/svg11.dtd">
<svg version="1.1" id="Layer_1" xmlns="http://www.w3.org/2000/svg" xmlns:xlink="http://www.w3.org/1999/xlink" x="0px" y="0px"
	 width="37.486px" height="54.524px" viewBox="0 0 37.486 54.524" enable-background="new 0 0 37.486 54.524">
<g>
	<path d="M11.927,54.524v-5.111h-1.704v-5.111H8.52v-9.798c-2.627-1.704-4.704-3.957-6.23-6.763C0.762,24.938,0,21.938,0,18.743 c0-5.182,1.827-9.601,5.484-13.259C9.14,1.828,13.56,0,18.743,0c5.181,0,9.601,1.828,13.258,5.484 c3.656,3.658,5.484,8.077,5.484,13.259c0,6.746-2.84,11.998-8.52,15.761v4.686v5.112h-1.704v5.111h-1.704v5.111H11.927z M10.224,33.652v3.834h4.153l-2.449-16.081l1.704-0.213l0.106,0.639l2.343,1.704l2.663-2.556l2.662,2.556l2.343-1.704l0.106-0.639 l1.704,0.213l-2.449,16.081h4.153v-3.94l0.426-0.319c2.556-1.561,4.542-3.621,5.963-6.177c1.419-2.557,2.13-5.325,2.13-8.307 c0-4.686-1.669-8.696-5.005-12.034c-3.338-3.337-7.348-5.005-12.034-5.005c-4.686,0-8.698,1.668-12.034,5.005 c-3.338,3.338-5.005,7.349-5.005,12.034c0,2.981,0.727,5.769,2.183,8.359c1.454,2.593,3.424,4.67,5.91,6.23L10.224,33.652z M10.224,42.598h17.039v-3.408H10.224V42.598z M11.927,47.709h13.631v-3.407H11.927V47.709z M23.854,49.413H13.631v3.408h10.223 V49.413z M21.405,37.486l2.023-13.313l-2.236,1.704l-2.449-2.556l-2.45,2.556l-2.236-1.704l2.023,13.313H21.405z"/>
</g>
</svg>