<?xml version="1.0" encoding="utf-8"?>
<!-- Generator: Adobe Illustrator 16.0.0, SVG Export Plug-In . SVG Version: 6.00 Build 0)  -->
<!DOCTYPE svg PUBLIC "-//W3C//DTD SVG 1.1//EN" "http://www.w3.org/Graphics/SVG/1.1/DTD/svg11.dtd">
<svg version="1.1" xmlns="http://www.w3.org/2000/svg" xmlns:xlink="http://www.w3.org/1999/xlink" x="0px" y="0px"
	 width="32.113px" height="32.112px" viewBox="-0.113 0 32.113 32.112" enable-background="new -0.113 0 32.113 32.112">
<g>
	<path d="M19,0C11.82,0,6,5.82,6,13c0,3.09,1.084,5.926,2.884,8.158L0.292,29.75c-0.54,0.54-0.54,1.418,0,1.958s1.418,0.54,1.958,0 l8.592-8.592C13.074,24.916,15.91,26,19,26c7.181,0,13-5.819,13-13C32,5.82,26.181,0,19,0z M19,24c-6.066,0-11-4.935-11-11 C8,6.934,12.934,2,19,2c6.065,0,11,4.934,11,11C30,19.065,25.065,24,19,24z"/>
</g>
</svg>