<?xml version="1.0" encoding="utf-8"?>
<!-- Generator: Adobe Illustrator 16.0.0, SVG Export Plug-In . SVG Version: 6.00 Build 0)  -->
<!DOCTYPE svg PUBLIC "-//W3C//DTD SVG 1.1//EN" "http://www.w3.org/Graphics/SVG/1.1/DTD/svg11.dtd">
<svg version="1.1" id="Layer_1" xmlns="http://www.w3.org/2000/svg" xmlns:xlink="http://www.w3.org/1999/xlink" x="0px" y="0px"
	 width="66.733px" height="44.576px" viewBox="0 0 66.733 44.576" enable-background="new 0 0 66.733 44.576">
<g>
	<path d="M49.007,17.987L66.733,7.56v37.017L49.007,34.148v9.646H0V8.342h39.232l-6.256-6.256H6.256V0h27.501l8.341,8.342h6.908 V17.987z M46.922,21.637V10.428H2.085v31.28h44.836V30.499l17.726,10.428V11.209L46.922,21.637z M6.256,18.769h4.171v-2.085H6.256 V18.769z M6.256,25.025H27.11v12.513H6.256V25.025z M8.342,35.452h16.683V27.11H8.342V35.452z M14.598,18.769h4.171v-2.085h-4.171 V18.769z"/>
</g>
</svg>